# xmcd
#
# Track frame offsets:
#	150
#	21309
#	36297
#	54413
#	73589
#	96754
#	118015
#	131704
#	151808
#	172076
#	191721
#	212596
#	226601
#	245721
#	266806
#
# Disc length: 3775 seconds
#
# Revision: 1
# Processed by: cddbd v1.5.1PL2 Copyright (c) Steve Scherf et al.
# Submitted via: audiograbber 1.83.01
#
DISCID=d60ebd0f
DTITLE=Various Artist - Nai Golemite Bulgarski Hitove na 90-te
DYEAR=1999
DGENRE=Pop
TTITLE0=BTR - Spasenie
TTITLE1=Milena - Neam Nervi
TTITLE2=Doni i Momchil - Diva Roza
TTITLE3=Stoian Zahariev - Anjelika
TTITLE4=Medikus - Vekat Na Liubovta
TTITLE5=Konkurent - Dai Mi Vreme
TTITLE6=Stenli - Putiat Kum Hrama
TTITLE7=Klas - Divi Kone
TTITLE8=Stoian Mihalev i Viktor - Otkakto ti
TTITLE9=Sprint - Domino
TTITLE10=Wasil Petrov - Drugiat
TTITLE11=Georgui Hristov - Schtrakam si s prusti
TTITLE12=Waldi Totev - Vdigni Otchi
TTITLE13=Ahat - Tchernata Ovca
TTITLE14=Kontrol - Nai Chtastliviat Den
EXTD=Corrected CD Info
EXTT0=
EXTT1=
EXTT2=
EXTT3=
EXTT4=
EXTT5=
EXTT6=
EXTT7=
EXTT8=
EXTT9=
EXTT10=
EXTT11=
EXTT12=
EXTT13=
EXTT14=
PLAYORDER=
